<svg aria-hidden="true" style="position: absolute; width: 0; height: 0; overflow: hidden;" version="1.1" xmlns="http://www.w3.org/2000/svg" xmlns:xlink="http://www.w3.org/1999/xlink">
<defs>
<symbol id="icon-play-arrow" viewBox="0 0 30 32">
<path d="M0 0v32l30.476-16-30.476-16z"></path>
</symbol>
<symbol id="icon-arrow-desktop-tablet" viewBox="0 0 32 32">
<path d="M16.945 17.862c-0.131 0.116-0.276 0.218-0.436 0.291s-0.335 0.102-0.509 0.102c-0.189 0-0.364-0.029-0.524-0.102s-0.305-0.175-0.436-0.291l-6.095-6.124c-0.131-0.131-0.276-0.218-0.436-0.291s-0.335-0.102-0.509-0.102c-0.189 0-0.364 0.029-0.524 0.102s-0.305 0.16-0.436 0.291c-0.247 0.247-0.378 0.582-0.378 0.945 0 0.349 0.131 0.684 0.378 0.931l6.124 6.124c0.756 0.756 1.775 1.178 2.836 1.178 1.047 0 2.065-0.422 2.822-1.178l6.124-6.124c0.247-0.247 0.378-0.582 0.378-0.931 0-0.175-0.029-0.349-0.102-0.509-0.058-0.16-0.16-0.305-0.276-0.436-0.131-0.131-0.276-0.218-0.436-0.291s-0.335-0.102-0.509-0.102c-0.189 0-0.364 0.029-0.524 0.102s-0.305 0.16-0.436 0.291l-6.095 6.124z"></path>
</symbol>
<symbol id="icon-arrow-mobile" viewBox="0 0 32 32">
<path d="M16.94 17.86c-0.12 0.12-0.28 0.22-0.44 0.28-0.16 0.080-0.34 0.12-0.5 0.12-0.18 0-0.36-0.040-0.52-0.12-0.16-0.060-0.32-0.16-0.44-0.28l-6.1-6.12c-0.12-0.12-0.28-0.22-0.44-0.3-0.16-0.060-0.34-0.1-0.5-0.1-0.18 0-0.36 0.040-0.52 0.1-0.16 0.080-0.32 0.18-0.44 0.3-0.24 0.24-0.38 0.58-0.38 0.94 0 0.34 0.14 0.68 0.38 0.94l6.12 6.12c0.76 0.74 1.78 1.16 2.84 1.16s2.060-0.42 2.82-1.16l6.12-6.12c0.24-0.26 0.38-0.58 0.38-0.94 0-0.18-0.020-0.34-0.1-0.5-0.060-0.18-0.16-0.32-0.28-0.44s-0.28-0.22-0.44-0.3c-0.16-0.060-0.34-0.1-0.5-0.1-0.18 0-0.36 0.040-0.52 0.1-0.16 0.080-0.32 0.18-0.44 0.3l-6.1 6.12z"></path>
</symbol>
<symbol id="icon-chocolate" viewBox="0 0 32 32">
<path fill="#000" style="fill: var(--color3, #000)" d="M13.82 2.41l7.52 7.53 0.080-0.080c0.16-0.15 0.37-0.24 0.59-0.24s0.44 0.080 0.6 0.23v0.010l0.87 0.86c0.31 0.31 0.32 0.77 0.080 1.1v0.010l-0.14 0.19 6.16 6.16c0.55 0.55 0.55 1.43 0 1.98l-9.43 9.43c-0.55 0.55-1.43 0.55-1.98 0l-4.45-4.45c-0.070 0.090-0.17 0.17-0.27 0.22-0.11 0.060-0.22 0.090-0.34 0.1-0.12 0-0.24-0.010-0.35-0.060-0.11-0.040-0.21-0.1-0.3-0.19l-2.6-2.6c-0.15-0.16-0.24-0.37-0.24-0.59s0.080-0.43 0.23-0.59l0.010-0.010 0.070-0.080-7.52-7.52c-0.55-0.55-0.55-1.43 0-1.98l9.43-9.43c0.55-0.55 1.43-0.55 1.98 0v0zM20.4 10.89l-1.76-1.76c-0.050-0.050-0.12-0.1-0.19-0.13s-0.15-0.050-0.23-0.050c-0.080 0-0.16 0.020-0.23 0.050-0.080 0.030-0.14 0.080-0.2 0.13l-3.58 3.58c-0.050 0.060-0.1 0.13-0.13 0.2s-0.050 0.15-0.050 0.23c0 0.080 0.020 0.16 0.050 0.24 0.030 0.070 0.080 0.14 0.13 0.19l1.75 1.75 0.61-0.61-1.56-1.56 3.21-3.22 1.57 1.57 0.61-0.61zM15.32 15.96l-1.75-1.75c-0.060-0.060-0.12-0.11-0.2-0.14-0.070-0.030-0.15-0.040-0.23-0.040s-0.15 0.010-0.23 0.040c-0.070 0.030-0.14 0.080-0.19 0.14l-3.58 3.58h-0.010v0.010c-0.24 0.23-0.24 0.61 0 0.85l1.75 1.75 0.62-0.62-1.57-1.56 3.22-3.21 1.56 1.56 0.61-0.61zM8.82 8.19l3.58 3.58c0.24 0.24 0.62 0.24 0.85-0.010l3.58-3.58c0.050-0.060 0.1-0.12 0.13-0.19 0.030-0.080 0.050-0.15 0.050-0.23h0.010c0-0.15-0.060-0.31-0.18-0.43l-3.58-3.58c-0.060-0.060-0.13-0.1-0.2-0.13-0.070-0.040-0.15-0.050-0.23-0.050s-0.16 0.010-0.24 0.050c-0.070 0.030-0.14 0.070-0.19 0.13l-3.58 3.59c-0.24 0.23-0.24 0.61 0 0.85zM3.75 13.26l3.58 3.58c0.24 0.24 0.62 0.24 0.85 0l3.58-3.58c0.060-0.060 0.1-0.12 0.13-0.2 0.030-0.070 0.050-0.15 0.050-0.23h0.010c0-0.16-0.060-0.31-0.18-0.43l-3.58-3.58c-0.060-0.060-0.12-0.1-0.2-0.14-0.070-0.030-0.15-0.040-0.23-0.040s-0.16 0.010-0.23 0.040c-0.070 0.040-0.14 0.080-0.19 0.14l-3.59 3.59c-0.24 0.23-0.24 0.61 0 0.85zM10.68 22.010l2.36 2.37 9.64-13.040-0.66-0.66-11.34 11.33z"></path>
<path d="M13.82 2.41l7.52 7.53 0.080-0.080c0.16-0.15 0.37-0.24 0.59-0.24s0.44 0.080 0.6 0.23v0.010l0.87 0.86c0.31 0.31 0.32 0.77 0.080 1.1v0.010l-0.14 0.19 6.16 6.16c0.55 0.55 0.55 1.43 0 1.98l-9.43 9.43c-0.55 0.55-1.43 0.55-1.98 0l-4.45-4.45c-0.070 0.090-0.17 0.17-0.27 0.22-0.11 0.060-0.22 0.090-0.34 0.1-0.12 0-0.24-0.010-0.35-0.060-0.11-0.040-0.21-0.1-0.3-0.19l-2.6-2.6c-0.15-0.16-0.24-0.37-0.24-0.59s0.080-0.43 0.23-0.59l0.010-0.010 0.070-0.080-7.52-7.52c-0.55-0.55-0.55-1.43 0-1.98l9.43-9.43c0.55-0.55 1.43-0.55 1.98 0v0zM20.4 10.89l-1.76-1.76c-0.050-0.050-0.12-0.1-0.19-0.13s-0.15-0.050-0.23-0.050c-0.080 0-0.16 0.020-0.23 0.050-0.080 0.030-0.14 0.080-0.2 0.13l-3.58 3.58c-0.050 0.060-0.1 0.13-0.13 0.2s-0.050 0.15-0.050 0.23c0 0.080 0.020 0.16 0.050 0.24 0.030 0.070 0.080 0.14 0.13 0.19l1.75 1.75 0.61-0.61-1.56-1.56 3.21-3.22 1.57 1.57 0.61-0.61zM15.32 15.96l-1.75-1.75c-0.060-0.060-0.12-0.11-0.2-0.14-0.070-0.030-0.15-0.040-0.23-0.040s-0.15 0.010-0.23 0.040c-0.070 0.030-0.14 0.080-0.19 0.14l-3.58 3.58h-0.010v0.010c-0.24 0.23-0.24 0.61 0 0.85l1.75 1.75 0.62-0.62-1.57-1.56 3.22-3.21 1.56 1.56 0.61-0.61zM8.82 8.19l3.58 3.58c0.24 0.24 0.62 0.24 0.85-0.010l3.58-3.58c0.050-0.060 0.1-0.12 0.13-0.19 0.030-0.080 0.050-0.15 0.050-0.23h0.010c0-0.15-0.060-0.31-0.18-0.43l-3.58-3.58c-0.060-0.060-0.13-0.1-0.2-0.13-0.070-0.040-0.15-0.050-0.23-0.050s-0.16 0.010-0.24 0.050c-0.070 0.030-0.14 0.070-0.19 0.13l-3.58 3.59c-0.24 0.23-0.24 0.61 0 0.85zM3.75 13.26l3.58 3.58c0.24 0.24 0.62 0.24 0.85 0l3.58-3.58c0.060-0.060 0.1-0.12 0.13-0.2 0.030-0.070 0.050-0.15 0.050-0.23h0.010c0-0.16-0.060-0.31-0.18-0.43l-3.58-3.58c-0.060-0.060-0.12-0.1-0.2-0.14-0.070-0.030-0.15-0.040-0.23-0.040s-0.16 0.010-0.23 0.040c-0.070 0.040-0.14 0.080-0.19 0.14l-3.59 3.59c-0.24 0.23-0.24 0.61 0 0.85zM10.68 22.010l2.36 2.37 9.64-13.040-0.66-0.66-11.34 11.33z"></path>
</symbol>
<symbol id="icon-circle" viewBox="0 0 32 32">
<path d="M32 16c0 8.812-7.188 16-16 16-8.837 0-16-7.188-16-16 0-8.837 7.163-16 16-16 8.812 0 16 7.163 16 16z"></path>
</symbol>
<symbol id="icon-coin" viewBox="0 0 32 32">
<path d="M16 2.66c-7.34 0-13.34 6-13.34 13.34 0 7.33 6 13.33 13.34 13.33 7.33 0 13.33-6 13.33-13.33 0-7.34-6-13.34-13.33-13.34zM16 26.66c-5.87 0-10.67-4.8-10.67-10.66 0-5.87 4.8-10.67 10.67-10.67 5.86 0 10.66 4.8 10.66 10.67 0 5.86-4.8 10.66-10.66 10.66z"></path>
<path d="M17.73 14.66h-3.47c-0.66 0-1.2-0.53-1.2-1.2 0-0.66 0.54-1.2 1.2-1.2h4.93c0.81 0 1.34-0.53 1.34-1.33s-0.53-1.33-1.34-1.33h-1.86v-1.21c0-0.79-0.54-1.33-1.33-1.33-0.81 0-1.34 0.54-1.34 1.33v1.21h-0.4c-2.13 0-3.87 1.73-3.87 3.86 0 2.14 1.74 3.87 3.87 3.87h3.34c0.66 0 1.19 0.53 1.19 1.2s-0.53 1.2-1.19 1.2h-4.94c-0.8 0-1.33 0.53-1.33 1.33s0.53 1.33 1.33 1.33h2v1.21c0 0.79 0.53 1.33 1.34 1.33 0.79 0 1.33-0.54 1.33-1.33v-1.21h0.4c2.13 0 3.87-1.73 3.87-3.86 0-2.14-1.74-3.87-3.87-3.87z"></path>
</symbol>
<symbol id="icon-cross-desktop-tablet" viewBox="0 0 32 32">
<path stroke-linejoin="round" stroke-linecap="round" stroke-miterlimit="4" stroke-width="2.9091" d="M24 8l-16 16"></path>
<path stroke-linejoin="round" stroke-linecap="round" stroke-miterlimit="4" stroke-width="2.9091" d="M8 8l16 16"></path>
</symbol>
<symbol id="icon-cross-mobile" viewBox="0 0 32 32">
<path stroke-linejoin="round" stroke-linecap="round" stroke-miterlimit="4" stroke-width="3" d="M24 8l-16 16"></path>
<path stroke-linejoin="round" stroke-linecap="round" stroke-miterlimit="4" stroke-width="3" d="M8 8l16 16"></path>
</symbol>
<symbol id="icon-instagram-desktop-tablet" viewBox="0 0 32 32">
<path stroke-linejoin="round" stroke-linecap="butt" stroke-miterlimit="4" stroke-width="2.6667" d="M22.667 2.667c3.68 0 6.667 2.973 6.667 6.667v13.333c0 3.68-2.987 6.667-6.667 6.667h-13.333c-3.693 0-6.667-2.987-6.667-6.667v-13.333c0-3.693 2.973-6.667 6.667-6.667h13.333z"></path>
<path stroke-linejoin="round" stroke-linecap="butt" stroke-miterlimit="4" stroke-width="2.6667" d="M20.787 18.387c-0.52 1-1.333 1.813-2.333 2.307-1 0.507-2.147 0.68-3.253 0.507s-2.12-0.693-2.92-1.493c-0.787-0.787-1.32-1.813-1.493-2.92s0-2.253 0.507-3.253c0.493-1 1.307-1.813 2.307-2.333 0.987-0.52 2.12-0.707 3.24-0.533 1.12 0.16 2.173 0.693 2.987 1.493 0.8 0.813 1.333 1.867 1.507 3 0.16 1.107-0.027 2.24-0.547 3.227z"></path>
<path stroke-linejoin="round" stroke-linecap="round" stroke-miterlimit="4" stroke-width="2.6667" d="M23.333 8.667v0"></path>
</symbol>
<symbol id="icon-instagram-mobile" viewBox="0 0 32 32">
<path stroke-linejoin="round" stroke-linecap="butt" stroke-miterlimit="4" stroke-width="2.1818" d="M22.662 2.662c3.68 0 6.662 2.982 6.662 6.662v13.338c0 3.68-2.982 6.662-6.662 6.662h-13.338c-3.68 0-6.662-2.982-6.662-6.662v-13.338c0-3.68 2.982-6.662 6.662-6.662h13.338z"></path>
<path stroke-linejoin="round" stroke-linecap="butt" stroke-miterlimit="4" stroke-width="2.1818" d="M20.785 18.385c-0.524 1.004-1.338 1.804-2.342 2.313s-2.138 0.684-3.244 0.509c-1.105-0.189-2.124-0.713-2.924-1.498-0.785-0.8-1.309-1.818-1.498-2.924-0.175-1.105 0-2.24 0.509-3.244s1.309-1.818 2.313-2.342c0.989-0.509 2.124-0.698 3.229-0.538 1.135 0.16 2.182 0.698 2.996 1.498 0.8 0.815 1.338 1.862 1.498 2.996 0.16 1.105-0.029 2.24-0.538 3.229z"></path>
<path stroke-linejoin="round" stroke-linecap="round" stroke-miterlimit="4" stroke-width="2.1818" d="M23.331 8.655h0.015"></path>
</symbol>
<symbol id="icon-menu-mobile" viewBox="0 0 32 32">
<path stroke-linejoin="round" stroke-linecap="round" stroke-miterlimit="4" stroke-width="2.2857" d="M4 16h24M4 8h24M4 24h24"></path>
</symbol>
<symbol id="icon-menu-tablet" viewBox="0 0 32 32">
<path stroke-linejoin="round" stroke-linecap="round" stroke-miterlimit="4" stroke-width="2.5" d="M4 16h24M4 8h24M4 24h24"></path>
</symbol>
<symbol id="icon-rectangle" viewBox="0 0 32 32">
<path d="M7.429 8.571h17.143c4.091 0 7.429 3.326 7.429 7.429 0 4.091-3.337 7.429-7.429 7.429h-17.143c-4.103 0-7.429-3.337-7.429-7.429 0-4.103 3.326-7.429 7.429-7.429z"></path>
</symbol>
<symbol id="icon-simply-chocolate-desktop-tablet" viewBox="0 0 32 32">
<path d="M14.72 2.64l-10.787 17.427 12.84 8.067 8.88-14.080-2.013-3.28-0.053-3.307-8.227-5.493-0.64 0.667z"></path>
<path stroke-linejoin="round" stroke-linecap="round" stroke-miterlimit="4" stroke-width="2.6667" d="M24.893 8.187l-9.627-6.013-11.733 19.253 14.187 8.867 9.453-15.507c-3.040-1.907-4.24-3.387-2.28-6.6zM21.627 23.867l-14.187-8.853M11.36 8.587l14.173 8.867M10.627 25.853l11.733-19.24"></path>
</symbol>
<symbol id="icon-simply-chocolate-mobile" viewBox="0 0 32 32">
<path d="M14.72 2.636l-10.789 17.432 12.846 8.061 8.884-14.080-2.011-3.276-0.061-3.307-8.229-5.501-0.64 0.67z"></path>
<path stroke-linejoin="round" stroke-linecap="round" stroke-miterlimit="4" stroke-width="2.7429" d="M24.884 8.183l-9.615-6.004-11.733 19.246 14.187 8.869 9.448-15.512c-3.048-1.905-4.236-3.383-2.286-6.598zM21.623 23.878l-14.187-8.869M11.352 8.594l14.187 8.869M10.621 25.859l11.733-19.246"></path>
</symbol>
<symbol id="icon-spoon" viewBox="0 0 32 32">
<path d="M15.45 14.1c-0.79-0.95-1.18-2.11-1.18-3.28 0-4.32 5.18-8.64 10.36-8.64 2.86 0 5.18 2.32 5.18 5.18 0 5.18-4.31 10.36-8.64 10.36-1.17 0-2.33-0.39-3.28-1.17l-12.76 12.76c-0.68 0.67-1.77 0.67-2.45 0-0.67-0.68-0.67-1.77 0-2.45l12.77-12.76z"></path>
</symbol>
<symbol id="icon-twitter-desktop-tablet" viewBox="0 0 32 32">
<path stroke-linejoin="round" stroke-linecap="butt" stroke-miterlimit="4" stroke-width="2.6667" d="M26.467 6.040c-0.8-0.933-1.867-1.587-3.053-1.88s-2.44-0.227-3.573 0.213c-1.147 0.44-2.133 1.213-2.813 2.227-0.693 1.013-1.053 2.213-1.027 3.44v1.333c-2.347 0.053-4.667-0.467-6.76-1.52s-4.56-3.56-5.907-5.48c0 0-4.667 12.96 7.333 18.293-2.747 1.853-6.027 2.787-9.333 2.667 12 6.667 26.667 0 26.667-15.333-0.013-0.373-0.040-0.747-0.12-1.107 1.373-1.347 2.333-3.040 2.787-4.893-1.28 0.893-2.693 1.587-4.2 2.040z"></path>
</symbol>
<symbol id="icon-twitter-mobile" viewBox="0 0 32 32">
<path stroke-linejoin="round" stroke-linecap="butt" stroke-miterlimit="4" stroke-width="2.4" d="M26.48 6.032c-0.816-0.928-1.872-1.584-3.072-1.872-1.184-0.304-2.432-0.224-3.568 0.208-1.152 0.432-2.128 1.216-2.816 2.224-0.688 1.024-1.056 2.224-1.024 3.44v1.328c-2.352 0.064-4.672-0.448-6.768-1.504s-3.888-3.152-5.232-5.056c0 0-5.344 12.528 6.656 17.856-2.736 1.872-6.016 2.8-9.328 2.672 12 6.672 26.672 0 26.672-15.328-0.016-0.384-0.048-0.752-0.112-1.12 1.36-1.344 2.32-3.024 2.768-4.88-1.28 0.896-2.688 1.584-4.176 2.032z"></path>
</symbol>
</defs>
</svg>
