<!-- Generated by IcoMoon.io -->
<svg version="1.1" xmlns="http://www.w3.org/2000/svg" width="32" height="32" viewBox="0 0 32 32">
<path fill="#fd9222" d="M16.94 17.86c-0.12 0.12-0.28 0.22-0.44 0.28-0.16 0.080-0.34 0.12-0.5 0.12-0.18 0-0.36-0.040-0.52-0.12-0.16-0.060-0.32-0.16-0.44-0.28l-6.1-6.12c-0.12-0.12-0.28-0.22-0.44-0.3-0.16-0.060-0.34-0.1-0.5-0.1-0.18 0-0.36 0.040-0.52 0.1-0.16 0.080-0.32 0.18-0.44 0.3-0.24 0.24-0.38 0.58-0.38 0.94 0 0.34 0.14 0.68 0.38 0.94l6.12 6.12c0.76 0.74 1.78 1.16 2.84 1.16s2.060-0.42 2.82-1.16l6.12-6.12c0.24-0.26 0.38-0.58 0.38-0.94 0-0.18-0.020-0.34-0.1-0.5-0.060-0.18-0.16-0.32-0.28-0.44s-0.28-0.22-0.44-0.3c-0.16-0.060-0.34-0.1-0.5-0.1-0.18 0-0.36 0.040-0.52 0.1-0.16 0.080-0.32 0.18-0.44 0.3l-6.1 6.12z"></path>
</svg>
