<!-- Generated by IcoMoon.io -->
<svg version="1.1" xmlns="http://www.w3.org/2000/svg" width="32" height="32" viewBox="0 0 32 32">
<path fill="#fd9222" d="M16.945 17.862c-0.131 0.116-0.276 0.218-0.436 0.291s-0.335 0.102-0.509 0.102c-0.189 0-0.364-0.029-0.524-0.102s-0.305-0.175-0.436-0.291l-6.095-6.124c-0.131-0.131-0.276-0.218-0.436-0.291s-0.335-0.102-0.509-0.102c-0.189 0-0.364 0.029-0.524 0.102s-0.305 0.16-0.436 0.291c-0.247 0.247-0.378 0.582-0.378 0.945 0 0.349 0.131 0.684 0.378 0.931l6.124 6.124c0.756 0.756 1.775 1.178 2.836 1.178 1.047 0 2.065-0.422 2.822-1.178l6.124-6.124c0.247-0.247 0.378-0.582 0.378-0.931 0-0.175-0.029-0.349-0.102-0.509-0.058-0.16-0.16-0.305-0.276-0.436-0.131-0.131-0.276-0.218-0.436-0.291s-0.335-0.102-0.509-0.102c-0.189 0-0.364 0.029-0.524 0.102s-0.305 0.16-0.436 0.291l-6.095 6.124z"></path>
</svg>
