<!-- Generated by IcoMoon.io -->
<svg version="1.1" xmlns="http://www.w3.org/2000/svg" width="32" height="32" viewBox="0 0 32 32">
<path fill="#000" d="M13.82 2.41l7.52 7.53 0.080-0.080c0.16-0.15 0.37-0.24 0.59-0.24s0.44 0.080 0.6 0.23v0.010l0.87 0.86c0.31 0.31 0.32 0.77 0.080 1.1v0.010l-0.14 0.19 6.16 6.16c0.55 0.55 0.55 1.43 0 1.98l-9.43 9.43c-0.55 0.55-1.43 0.55-1.98 0l-4.45-4.45c-0.070 0.090-0.17 0.17-0.27 0.22-0.11 0.060-0.22 0.090-0.34 0.1-0.12 0-0.24-0.010-0.35-0.060-0.11-0.040-0.21-0.1-0.3-0.19l-2.6-2.6c-0.15-0.16-0.24-0.37-0.24-0.59s0.080-0.43 0.23-0.59l0.010-0.010 0.070-0.080-7.52-7.52c-0.55-0.55-0.55-1.43 0-1.98l9.43-9.43c0.55-0.55 1.43-0.55 1.98 0v0zM20.4 10.89l-1.76-1.76c-0.050-0.050-0.12-0.1-0.19-0.13s-0.15-0.050-0.23-0.050c-0.080 0-0.16 0.020-0.23 0.050-0.080 0.030-0.14 0.080-0.2 0.13l-3.58 3.58c-0.050 0.060-0.1 0.13-0.13 0.2s-0.050 0.15-0.050 0.23c0 0.080 0.020 0.16 0.050 0.24 0.030 0.070 0.080 0.14 0.13 0.19l1.75 1.75 0.61-0.61-1.56-1.56 3.21-3.22 1.57 1.57 0.61-0.61zM15.32 15.96l-1.75-1.75c-0.060-0.060-0.12-0.11-0.2-0.14-0.070-0.030-0.15-0.040-0.23-0.040s-0.15 0.010-0.23 0.040c-0.070 0.030-0.14 0.080-0.19 0.14l-3.58 3.58h-0.010v0.010c-0.24 0.23-0.24 0.61 0 0.85l1.75 1.75 0.62-0.62-1.57-1.56 3.22-3.21 1.56 1.56 0.61-0.61zM8.82 8.19l3.58 3.58c0.24 0.24 0.62 0.24 0.85-0.010l3.58-3.58c0.050-0.060 0.1-0.12 0.13-0.19 0.030-0.080 0.050-0.15 0.050-0.23h0.010c0-0.15-0.060-0.31-0.18-0.43l-3.58-3.58c-0.060-0.060-0.13-0.1-0.2-0.13-0.070-0.040-0.15-0.050-0.23-0.050s-0.16 0.010-0.24 0.050c-0.070 0.030-0.14 0.070-0.19 0.13l-3.58 3.59c-0.24 0.23-0.24 0.61 0 0.85zM3.75 13.26l3.58 3.58c0.24 0.24 0.62 0.24 0.85 0l3.58-3.58c0.060-0.060 0.1-0.12 0.13-0.2 0.030-0.070 0.050-0.15 0.050-0.23h0.010c0-0.16-0.060-0.31-0.18-0.43l-3.58-3.58c-0.060-0.060-0.12-0.1-0.2-0.14-0.070-0.030-0.15-0.040-0.23-0.040s-0.16 0.010-0.23 0.040c-0.070 0.040-0.14 0.080-0.19 0.14l-3.59 3.59c-0.24 0.23-0.24 0.61 0 0.85zM10.68 22.010l2.36 2.37 9.64-13.040-0.66-0.66-11.34 11.33z"></path>
<path fill="#fd9222" d="M13.82 2.41l7.52 7.53 0.080-0.080c0.16-0.15 0.37-0.24 0.59-0.24s0.44 0.080 0.6 0.23v0.010l0.87 0.86c0.31 0.31 0.32 0.77 0.080 1.1v0.010l-0.14 0.19 6.16 6.16c0.55 0.55 0.55 1.43 0 1.98l-9.43 9.43c-0.55 0.55-1.43 0.55-1.98 0l-4.45-4.45c-0.070 0.090-0.17 0.17-0.27 0.22-0.11 0.060-0.22 0.090-0.34 0.1-0.12 0-0.24-0.010-0.35-0.060-0.11-0.040-0.21-0.1-0.3-0.19l-2.6-2.6c-0.15-0.16-0.24-0.37-0.24-0.59s0.080-0.43 0.23-0.59l0.010-0.010 0.070-0.080-7.52-7.52c-0.55-0.55-0.55-1.43 0-1.98l9.43-9.43c0.55-0.55 1.43-0.55 1.98 0v0zM20.4 10.89l-1.76-1.76c-0.050-0.050-0.12-0.1-0.19-0.13s-0.15-0.050-0.23-0.050c-0.080 0-0.16 0.020-0.23 0.050-0.080 0.030-0.14 0.080-0.2 0.13l-3.58 3.58c-0.050 0.060-0.1 0.13-0.13 0.2s-0.050 0.15-0.050 0.23c0 0.080 0.020 0.16 0.050 0.24 0.030 0.070 0.080 0.14 0.13 0.19l1.75 1.75 0.61-0.61-1.56-1.56 3.21-3.22 1.57 1.57 0.61-0.61zM15.32 15.96l-1.75-1.75c-0.060-0.060-0.12-0.11-0.2-0.14-0.070-0.030-0.15-0.040-0.23-0.040s-0.15 0.010-0.23 0.040c-0.070 0.030-0.14 0.080-0.19 0.14l-3.58 3.58h-0.010v0.010c-0.24 0.23-0.24 0.61 0 0.85l1.75 1.75 0.62-0.62-1.57-1.56 3.22-3.21 1.56 1.56 0.61-0.61zM8.82 8.19l3.58 3.58c0.24 0.24 0.62 0.24 0.85-0.010l3.58-3.58c0.050-0.060 0.1-0.12 0.13-0.19 0.030-0.080 0.050-0.15 0.050-0.23h0.010c0-0.15-0.060-0.31-0.18-0.43l-3.58-3.58c-0.060-0.060-0.13-0.1-0.2-0.13-0.070-0.040-0.15-0.050-0.23-0.050s-0.16 0.010-0.24 0.050c-0.070 0.030-0.14 0.070-0.19 0.13l-3.58 3.59c-0.24 0.23-0.24 0.61 0 0.85zM3.75 13.26l3.58 3.58c0.24 0.24 0.62 0.24 0.85 0l3.58-3.58c0.060-0.060 0.1-0.12 0.13-0.2 0.030-0.070 0.050-0.15 0.050-0.23h0.010c0-0.16-0.060-0.31-0.18-0.43l-3.58-3.58c-0.060-0.060-0.12-0.1-0.2-0.14-0.070-0.030-0.15-0.040-0.23-0.040s-0.16 0.010-0.23 0.040c-0.070 0.040-0.14 0.080-0.19 0.14l-3.59 3.59c-0.24 0.23-0.24 0.61 0 0.85zM10.68 22.010l2.36 2.37 9.64-13.040-0.66-0.66-11.34 11.33z"></path>
</svg>
