<!-- Generated by IcoMoon.io -->
<svg version="1.1" xmlns="http://www.w3.org/2000/svg" width="32" height="32" viewBox="0 0 32 32">
<path fill="#fd9222" d="M16 2.66c-7.34 0-13.34 6-13.34 13.34 0 7.33 6 13.33 13.34 13.33 7.33 0 13.33-6 13.33-13.33 0-7.34-6-13.34-13.33-13.34zM16 26.66c-5.87 0-10.67-4.8-10.67-10.66 0-5.87 4.8-10.67 10.67-10.67 5.86 0 10.66 4.8 10.66 10.67 0 5.86-4.8 10.66-10.66 10.66z"></path>
<path fill="#fd9222" d="M17.73 14.66h-3.47c-0.66 0-1.2-0.53-1.2-1.2 0-0.66 0.54-1.2 1.2-1.2h4.93c0.81 0 1.34-0.53 1.34-1.33s-0.53-1.33-1.34-1.33h-1.86v-1.21c0-0.79-0.54-1.33-1.33-1.33-0.81 0-1.34 0.54-1.34 1.33v1.21h-0.4c-2.13 0-3.87 1.73-3.87 3.86 0 2.14 1.74 3.87 3.87 3.87h3.34c0.66 0 1.19 0.53 1.19 1.2s-0.53 1.2-1.19 1.2h-4.94c-0.8 0-1.33 0.53-1.33 1.33s0.53 1.33 1.33 1.33h2v1.21c0 0.79 0.53 1.33 1.34 1.33 0.79 0 1.33-0.54 1.33-1.33v-1.21h0.4c2.13 0 3.87-1.73 3.87-3.86 0-2.14-1.74-3.87-3.87-3.87z"></path>
</svg>
