<!-- Generated by IcoMoon.io -->
<svg version="1.1" xmlns="http://www.w3.org/2000/svg" width="32" height="32" viewBox="0 0 32 32">
<path fill="none" stroke-linejoin="round" stroke-linecap="butt" stroke-miterlimit="4" stroke-width="2.6667" stroke="#000" d="M22.667 2.667c3.68 0 6.667 2.973 6.667 6.667v13.333c0 3.68-2.987 6.667-6.667 6.667h-13.333c-3.693 0-6.667-2.987-6.667-6.667v-13.333c0-3.693 2.973-6.667 6.667-6.667h13.333z"></path>
<path fill="none" stroke-linejoin="round" stroke-linecap="butt" stroke-miterlimit="4" stroke-width="2.6667" stroke="#000" d="M20.787 18.387c-0.52 1-1.333 1.813-2.333 2.307-1 0.507-2.147 0.68-3.253 0.507s-2.12-0.693-2.92-1.493c-0.787-0.787-1.32-1.813-1.493-2.92s0-2.253 0.507-3.253c0.493-1 1.307-1.813 2.307-2.333 0.987-0.52 2.12-0.707 3.24-0.533 1.12 0.16 2.173 0.693 2.987 1.493 0.8 0.813 1.333 1.867 1.507 3 0.16 1.107-0.027 2.24-0.547 3.227z"></path>
<path fill="none" stroke-linejoin="round" stroke-linecap="round" stroke-miterlimit="4" stroke-width="2.6667" stroke="#000" d="M23.333 8.667v0"></path>
</svg>
