<!-- Generated by IcoMoon.io -->
<svg version="1.1" xmlns="http://www.w3.org/2000/svg" width="32" height="32" viewBox="0 0 32 32">
<path fill="none" stroke-linejoin="round" stroke-linecap="butt" stroke-miterlimit="4" stroke-width="2.1818" stroke="#000" d="M22.662 2.662c3.68 0 6.662 2.982 6.662 6.662v13.338c0 3.68-2.982 6.662-6.662 6.662h-13.338c-3.68 0-6.662-2.982-6.662-6.662v-13.338c0-3.68 2.982-6.662 6.662-6.662h13.338z"></path>
<path fill="none" stroke-linejoin="round" stroke-linecap="butt" stroke-miterlimit="4" stroke-width="2.1818" stroke="#000" d="M20.785 18.385c-0.524 1.004-1.338 1.804-2.342 2.313s-2.138 0.684-3.244 0.509c-1.105-0.189-2.124-0.713-2.924-1.498-0.785-0.8-1.309-1.818-1.498-2.924-0.175-1.105 0-2.24 0.509-3.244s1.309-1.818 2.313-2.342c0.989-0.509 2.124-0.698 3.229-0.538 1.135 0.16 2.182 0.698 2.996 1.498 0.8 0.815 1.338 1.862 1.498 2.996 0.16 1.105-0.029 2.24-0.538 3.229z"></path>
<path fill="none" stroke-linejoin="round" stroke-linecap="round" stroke-miterlimit="4" stroke-width="2.1818" stroke="#000" d="M23.331 8.655h0.015"></path>
</svg>
