<!-- Generated by IcoMoon.io -->
<svg version="1.1" xmlns="http://www.w3.org/2000/svg" width="32" height="32" viewBox="0 0 32 32">
<path fill="none" stroke-linejoin="round" stroke-linecap="butt" stroke-miterlimit="4" stroke-width="2.6667" stroke="#000" d="M26.467 6.040c-0.8-0.933-1.867-1.587-3.053-1.88s-2.44-0.227-3.573 0.213c-1.147 0.44-2.133 1.213-2.813 2.227-0.693 1.013-1.053 2.213-1.027 3.44v1.333c-2.347 0.053-4.667-0.467-6.76-1.52s-4.56-3.56-5.907-5.48c0 0-4.667 12.96 7.333 18.293-2.747 1.853-6.027 2.787-9.333 2.667 12 6.667 26.667 0 26.667-15.333-0.013-0.373-0.040-0.747-0.12-1.107 1.373-1.347 2.333-3.040 2.787-4.893-1.28 0.893-2.693 1.587-4.2 2.040z"></path>
</svg>
