<!-- Generated by IcoMoon.io -->
<svg version="1.1" xmlns="http://www.w3.org/2000/svg" width="32" height="32" viewBox="0 0 32 32">
<path fill="none" stroke-linejoin="round" stroke-linecap="butt" stroke-miterlimit="4" stroke-width="2.4" stroke="#000" d="M26.48 6.032c-0.816-0.928-1.872-1.584-3.072-1.872-1.184-0.304-2.432-0.224-3.568 0.208-1.152 0.432-2.128 1.216-2.816 2.224-0.688 1.024-1.056 2.224-1.024 3.44v1.328c-2.352 0.064-4.672-0.448-6.768-1.504s-3.888-3.152-5.232-5.056c0 0-5.344 12.528 6.656 17.856-2.736 1.872-6.016 2.8-9.328 2.672 12 6.672 26.672 0 26.672-15.328-0.016-0.384-0.048-0.752-0.112-1.12 1.36-1.344 2.32-3.024 2.768-4.88-1.28 0.896-2.688 1.584-4.176 2.032z"></path>
</svg>
